<?xml version="1.0" encoding="UTF-8"?>
<svg xmlns="http://www.w3.org/2000/svg" viewBox="0 0 550 357.31">
  <g id="uuid-f35239c2-5a7b-41a7-b8c0-c49f8ccc0ca0" data-name="developer">
    <path d="M157.5,230.48l11,114s-1,7,7,10,184.9,0,184.9,0c0,0,3.1,1,5.1-10,1.26-6.96,12-118,12-118,0,0,2-6-11-7-6.77-.52-154.14-4.38-199,0-8.41,.82-10,10.05-10,11Z" style="fill: none; stroke: #2dd5c4; stroke-miterlimit: 10; stroke-width: 3px;"/>
    <path d="M252.27,140.84c-23.96,.03-45.22,.81-51.34,2.64-13.43,4-30.43,2-59.43,54s-12,85-6,94c3.33,5,7.59,15.55,30.03,22.23" style="fill: none; stroke: #2dd5c4; stroke-miterlimit: 10; stroke-width: 2px;"/>
    <path d="M370.5,308.48s20.07-2.51,30.03-21.25,2.96-81.47-10.03-101.75c-12.5-19.5-34-39-62-42-9.32-1-25.09-1.78-42.46-2.22" style="fill: none; stroke: #2dd5c4; stroke-miterlimit: 10; stroke-width: 2px;"/>
    <line x1="298.73" y1="143.66" x2="298.73" y2="197.92" style="fill: none; stroke: #2dd5c4; stroke-linecap: round; stroke-miterlimit: 10; stroke-width: 5px;"/>
    <line x1="238.45" y1="142.54" x2="238.45" y2="171.98" style="fill: none; stroke: #2dd5c4; stroke-linecap: round; stroke-miterlimit: 10; stroke-width: 5px;"/>
    <line x1="269.49" y1="144.98" x2="269.49" y2="218.64" style="fill: none; stroke: #2dd5c4; stroke-linecap: round; stroke-miterlimit: 10;"/>
    <path d="M216.03,72.95c.73,12.76,2.26,26.67,2.97,33.03,1,9,4.59,11.75,6,13,6.94,6.15,25.68,21.86,31,24,5.77,2.32,12,2,12,2,0,0,7.5,.5,13-1,2.16-.59,25.5-14.5,35-28,3.08-4.37,8-59,8-66,0-.92-.06-1.82-.16-2.69" style="fill: none; stroke: #2dd5c4; stroke-miterlimit: 10; stroke-width: 2px;"/>
    <path d="M215.63,75.45s7.37-19.47,5.37-24.47,73-27,89-7c12.69,15.86,17.83-2.88,19.42-11.31,.45-2.42,.02-4.92-1.18-7.07-5.14-9.13-21.05-32.92-42.23-21.63-12.49,6.66-43.71,11.24-53.8,12.59-2.32,.31-4.54,1.08-6.54,2.29-5.21,3.15-14.65,9.87-14.65,17.12,0,10,4.63,39.47,4.63,39.47Z" style="fill: none; stroke: #2dd5c4; stroke-miterlimit: 10; stroke-width: 2px;"/>
    <path d="M229.6,122.97c-10.36,1.13-18.8,3.06-23.6,6.02-13,8,10.03,12.71,10.03,12.71" style="fill: none; stroke: #2dd5c4; stroke-linecap: round; stroke-miterlimit: 10; stroke-width: 2px;"/>
    <path d="M327.45,143.37s23.55-5.39,2.55-13.39c-4.74-1.81-12.65-3.47-22.28-4.83" style="fill: none; stroke: #2dd5c4; stroke-linecap: round; stroke-miterlimit: 10; stroke-width: 2px;"/>
    <line x1="202.02" y1="134.26" x2="204.61" y2="141.69" style="fill: none; stroke: #2dd5c4; stroke-linecap: round; stroke-miterlimit: 10; stroke-width: 2px;"/>
    <line x1="338.71" y1="137.98" x2="336.92" y2="144.98" style="fill: none; stroke: #2dd5c4; stroke-linecap: round; stroke-miterlimit: 10; stroke-width: 2px;"/>
    <path d="M305.68,126.99s-.24,10.72,2.04,13.85" style="fill: none; stroke: #2dd5c4; stroke-linecap: round; stroke-miterlimit: 10; stroke-width: 2px;"/>
    <path d="M233.37,126.99s-.43,13.85-3.37,13.99" style="fill: none; stroke: #2dd5c4; stroke-linecap: round; stroke-miterlimit: 10; stroke-width: 2px;"/>
    <polyline points="290.5 308.48 305.72 294.97 290.5 282.98" style="fill: none; stroke: #2dd5c4; stroke-linecap: round; stroke-miterlimit: 10; stroke-width: 5px;"/>
    <line x1="277.17" y1="275.07" x2="257.33" y2="319.4" style="fill: none; stroke: #2dd5c4; stroke-linecap: round; stroke-miterlimit: 10; stroke-width: 5px;"/>
    <polyline points="244.8 308.29 229.59 294.77 244.8 282.79" style="fill: none; stroke: #2dd5c4; stroke-linecap: round; stroke-miterlimit: 10; stroke-width: 5px;"/>
    <path d="M108.23,34.98c7.59,0,13.77,6.18,13.77,13.77V181.21c0,7.59-6.18,13.77-13.77,13.77H16.77c-7.59,0-13.77-6.18-13.77-13.77V48.75c0-7.59,6.18-13.77,13.77-13.77H108.23m0-3H16.77C7.51,31.98,0,39.49,0,48.75V181.21c0,9.26,7.51,16.77,16.77,16.77H108.23c9.26,0,16.77-7.51,16.77-16.77V48.75c0-9.26-7.51-16.77-16.77-16.77h0Z" style="fill: #2dd5c4;"/>
    <line x1="17" y1="51.98" x2="71" y2="51.98" style="fill: none; stroke: #2dd5c4; stroke-linecap: round; stroke-miterlimit: 10; stroke-width: 4px;"/>
    <line x1="31" y1="65.98" x2="85" y2="65.98" style="fill: none; stroke: #2dd5c4; stroke-linecap: round; stroke-miterlimit: 10; stroke-width: 4px;"/>
    <line x1="58" y1="79.98" x2="112" y2="79.98" style="fill: none; stroke: #2dd5c4; stroke-linecap: round; stroke-miterlimit: 10; stroke-width: 4px;"/>
    <line x1="75" y1="91.98" x2="98" y2="91.98" style="fill: none; stroke: #2dd5c4; stroke-linecap: round; stroke-miterlimit: 10; stroke-width: 4px;"/>
    <line x1="31" y1="105.98" x2="85" y2="105.98" style="fill: none; stroke: #2dd5c4; stroke-linecap: round; stroke-miterlimit: 10; stroke-width: 4px;"/>
    <line x1="58" y1="114.98" x2="71" y2="114.98" style="fill: none; stroke: #2dd5c4; stroke-linecap: round; stroke-miterlimit: 10; stroke-width: 4px;"/>
    <line x1="31" y1="126.98" x2="67" y2="126.98" style="fill: none; stroke: #2dd5c4; stroke-linecap: round; stroke-miterlimit: 10; stroke-width: 4px;"/>
    <line x1="13" y1="137.98" x2="75" y2="137.98" style="fill: none; stroke: #2dd5c4; stroke-linecap: round; stroke-miterlimit: 10; stroke-width: 4px;"/>
    <line x1="44" y1="146.98" x2="98" y2="146.98" style="fill: none; stroke: #2dd5c4; stroke-linecap: round; stroke-miterlimit: 10; stroke-width: 4px;"/>
    <line x1="38" y1="156.98" x2="51" y2="156.98" style="fill: none; stroke: #2dd5c4; stroke-linecap: round; stroke-miterlimit: 10; stroke-width: 4px;"/>
    <path d="M533.23,163.98c7.59,0,13.77,6.18,13.77,13.77v132.47c0,7.59-6.18,13.77-13.77,13.77h-91.47c-7.59,0-13.77-6.18-13.77-13.77V177.75c0-7.59,6.18-13.77,13.77-13.77h91.47m0-3h-91.47c-9.26,0-16.77,7.51-16.77,16.77v132.47c0,9.26,7.51,16.77,16.77,16.77h91.47c9.26,0,16.77-7.51,16.77-16.77V177.75c0-9.26-7.51-16.77-16.77-16.77h0Z" style="fill: #2dd5c4;"/>
    <path d="M102.08,206.14c2.16,0,3.92,1.76,3.92,3.92v11.1c0,2.16-1.76,3.92-3.92,3.92h-13.17c-2.16,0-3.92-1.76-3.92-3.92v-11.1c0-2.16,1.76-3.92,3.92-3.92h13.17m0-2h-13.17c-3.27,0-5.92,2.65-5.92,5.92v11.1c0,3.27,2.65,5.92,5.92,5.92h13.17c3.27,0,5.92-2.65,5.92-5.92v-11.1c0-3.27-2.65-5.92-5.92-5.92h0Z" style="fill: #2dd5c4;"/>
    <path d="M415.42,150.04c2.16,0,3.92,1.76,3.92,3.92v11.1c0,2.16-1.76,3.92-3.92,3.92h-13.17c-2.16,0-3.92-1.76-3.92-3.92v-11.1c0-2.16,1.76-3.92,3.92-3.92h13.17m0-2h-13.17c-3.27,0-5.92,2.65-5.92,5.92v11.1c0,3.27,2.65,5.92,5.92,5.92h13.17c3.27,0,5.92-2.65,5.92-5.92v-11.1c0-3.27-2.65-5.92-5.92-5.92h0Z" style="fill: #2dd5c4;"/>
    <path d="M398.07,143.39c1.62,0,2.93,1.32,2.93,2.93v4.22c0,1.62-1.32,2.93-2.93,2.93h-5.49c-1.62,0-2.93-1.32-2.93-2.93v-4.22c0-1.62,1.32-2.93,2.93-2.93h5.49m0-2h-5.49c-2.72,0-4.93,2.21-4.93,4.93v4.22c0,2.72,2.21,4.93,4.93,4.93h5.49c2.72,0,4.93-2.21,4.93-4.93v-4.22c0-2.72-2.21-4.93-4.93-4.93h0Z" style="fill: #2dd5c4;"/>
    <path d="M110.59,222.45c1.62,0,2.93,1.32,2.93,2.93v4.22c0,1.62-1.32,2.93-2.93,2.93h-5.49c-1.62,0-2.93-1.32-2.93-2.93v-4.22c0-1.62,1.32-2.93,2.93-2.93h5.49m0-2h-5.49c-2.72,0-4.93,2.21-4.93,4.93v4.22c0,2.72,2.21,4.93,4.93,4.93h5.49c2.72,0,4.93-2.21,4.93-4.93v-4.22c0-2.72-2.21-4.93-4.93-4.93h0Z" style="fill: #2dd5c4;"/>
  </g>
  <g id="uuid-047628e8-6142-46f4-98e2-20289041f852" data-name="Layer 2">
    <g>
      <path d="M512,214.75v-13.85h-6.84c-.8-3.38-2.16-6.54-3.99-9.38l4.97-4.94-9.8-9.76-5.04,5.03c-2.84-1.74-5.98-3.01-9.33-3.75v-7.13h-13.91v7.29c-3.32,.82-6.43,2.17-9.23,3.99l-5.16-5.13-9.8,9.76,5.33,5.32c-.42,.69-.8,1.39-1.16,2.11-1.13,2.16-1.99,4.53-2.58,6.9h-7.45v13.85h7.6c.23,.91,.5,1.8,.8,2.69,.02,.06,.05,.12,.06,.18,0,.02,.02,.03,.02,.06,.74,2.14,1.71,4.18,2.88,6.07l-5.36,5.33,9.8,9.76,5.3-5.27c2.76,1.74,5.83,3.05,9.09,3.84v7.26h13.76v-7.11c3.43-.76,6.64-2.07,9.53-3.87l4.86,4.83,9.8-9.76-4.85-4.82c1.81-2.88,3.16-6.09,3.93-9.5h6.78v-.02Zm-14.32,9.67l4.52,4.5-5.53,5.51-4.46-4.44c-3.73,2.85-8.22,4.79-13.09,5.44v6.4h-7.75v-6.45c-4.76-.69-9.12-2.6-12.78-5.39l-4.77,4.76-5.53-5.51,4.89-4.73c-2.7-3.62-4.53-7.91-5.2-12.6h-6.84v-7.72h6.64l.23-.54c.71-4.49,2.49-8.62,5.07-12.13l-4.83-4.82,5.53-5.51,4.68,4.82c3.62-2.79,7.97-4.71,12.7-5.44v-6.45h7.75v6.39c4.83,.62,9.26,2.48,12.99,5.26l4.58-4.55,5.38,5.51-4.47,4.46c2.75,3.59,4.64,7.88,5.36,12.55h6.86v7.72h-6.75c-.59,4.8-2.43,9.23-5.18,12.96h0Z" style="fill: #2dd5c4;"/>
      <path d="M475.15,190.98c-9.33,0-17.08,7.55-17.08,17s7.76,17,17.08,17,17.08-7.72,17.08-17-7.75-17-17.08-17Zm0,30.85c-7.75,0-13.91-6.15-13.91-13.85s6.33-13.85,13.91-13.85,13.91,6.15,13.91,13.85c.02,7.72-6.31,13.85-13.91,13.85Z" style="fill: #2dd5c4;"/>
    </g>
    <g>
      <line x1="520.72" y1="283.63" x2="520.62" y2="283.65" style="fill: #2dd5c4;"/>
      <g>
        <path d="M538.01,260.26l-1.35-9.37-4.63,.67c-.87-2.21-2.1-4.22-3.61-5.96l2.88-3.83-7.59-5.65-2.92,3.9c-2.09-.9-4.34-1.45-6.68-1.63l-.69-4.82-9.41,1.36,.71,4.94c-2.17,.88-4.14,2.1-5.86,3.6l-4-2.97-5.68,7.56,4.13,3.08c-.22,.51-.41,1.02-.58,1.54-.56,1.57-.91,3.26-1.08,4.92l-5.04,.73,1.35,9.37,5.14-.74c.24,.59,.51,1.17,.8,1.74,.02,.04,.04,.08,.06,.12,0,.01,.01,.02,.02,.04,.71,1.38,1.56,2.67,2.54,3.83l-3.11,4.13,7.59,5.65,3.07-4.08c2.04,.91,4.24,1.5,6.53,1.71l.71,4.92,9.31-1.34-.69-4.81c2.25-.85,4.3-2.05,6.07-3.55l3.76,2.8,5.68-7.56-3.75-2.79c.95-2.13,1.54-4.43,1.73-6.81l4.59-.66h0Zm-8.75,7.93l3.5,2.61-3.2,4.27-3.45-2.57c-2.25,2.3-5.09,4.04-8.33,4.96l.62,4.33-5.24,.76-.63-4.36c-3.29,0-6.43-.87-9.17-2.4l-2.77,3.69-4.28-3.19,2.85-3.68c-2.18-2.19-3.84-4.91-4.74-8.02l-4.63,.67-.75-5.22,4.5-.65,.1-.39c.04-3.11,.85-6.08,2.25-8.7l-3.74-2.79,3.2-4.27,3.64,2.8c2.18-2.24,4.94-3.97,8.07-4.92l-.63-4.36,5.24-.76,.62,4.32c3.33-.05,6.51,.77,9.3,2.29l2.65-3.52,4.18,3.21-2.59,3.45c2.21,2.16,3.91,4.88,4.85,7.97l4.64-.67,.75,5.22-4.57,.66c.07,3.31-.75,6.48-2.24,9.28h0Z" style="fill: #2dd5c4;"/>
        <path d="M510.75,247.76c-6.32,.91-10.82,6.78-9.9,13.18s6.91,10.75,13.22,9.84,10.81-6.89,9.9-13.18c-.91-6.29-6.9-10.75-13.22-9.84Zm3.01,20.88c-5.24,.76-10.01-2.8-10.76-8.02s2.93-9.99,8.06-10.73,10.01,2.8,10.76,8.02c.76,5.22-2.92,9.99-8.06,10.73Z" style="fill: #2dd5c4;"/>
      </g>
    </g>
    <g>
      <path d="M494.86,290.23v-7.21h-3.56c-.42-1.76-1.13-3.41-2.08-4.89l2.59-2.57-5.11-5.08-2.63,2.62c-1.48-.9-3.12-1.57-4.86-1.95v-3.71h-7.25v3.8c-1.73,.42-3.35,1.13-4.81,2.08l-2.69-2.67-5.11,5.08,2.78,2.77c-.22,.36-.42,.72-.61,1.1-.59,1.13-1.04,2.36-1.35,3.6h-3.88v7.21h3.96c.12,.47,.26,.94,.42,1.4,0,.03,.02,.06,.03,.09,0,0,0,.02,0,.03,.39,1.12,.89,2.18,1.5,3.16l-2.79,2.78,5.11,5.08,2.76-2.75c1.44,.9,3.04,1.59,4.74,2v3.78h7.17v-3.71c1.79-.39,3.46-1.08,4.96-2.01l2.53,2.52,5.11-5.08-2.53-2.51c.94-1.5,1.64-3.17,2.05-4.95h3.53Zm-7.46,5.03l2.35,2.34-2.88,2.87-2.32-2.31c-1.94,1.49-4.28,2.49-6.82,2.83v3.34h-4.04v-3.36c-2.48-.36-4.75-1.35-6.66-2.81l-2.49,2.48-2.88-2.87,2.55-2.46c-1.41-1.89-2.36-4.12-2.71-6.56h-3.56v-4.02h3.46l.12-.28c.37-2.34,1.3-4.49,2.64-6.32l-2.52-2.51,2.88-2.87,2.44,2.51c1.89-1.46,4.15-2.45,6.62-2.83v-3.36h4.04v3.33c2.52,.32,4.82,1.29,6.77,2.74l2.38-2.37,2.8,2.87-2.33,2.32c1.43,1.87,2.42,4.11,2.79,6.54h3.57v4.02h-3.52c-.31,2.5-1.27,4.81-2.7,6.75h0Z" style="fill: #2dd5c4;"/>
      <path d="M475.66,277.85c-4.86,0-8.9,3.93-8.9,8.86s4.04,8.86,8.9,8.86,8.9-4.02,8.9-8.86-4.04-8.86-8.9-8.86Zm0,16.07c-4.04,0-7.25-3.2-7.25-7.21s3.3-7.21,7.25-7.21,7.25,3.2,7.25,7.21c0,4.02-3.29,7.21-7.25,7.21Z" style="fill: #2dd5c4;"/>
    </g>
  </g>
</svg>