<?xml version="1.0" encoding="UTF-8"?>
<svg xmlns="http://www.w3.org/2000/svg" viewBox="0 0 713 1638" preserveAspectRatio="none">
  <g id="uuid-ac8acc81-3dc5-40be-8f80-945e1419ba63">
    <path d="M611.5,958.5c2-23-33.75-127.5-33.75-127.5,0,0-20.25-22.5-25.25-122.5s-22-127-25-119-87,71-87,71c0,0-79-7-109-12s-51.78-91.91-60-72c-19,46-15,97-15,97,0,0-37,22-68,54s-40,125-40,125c0,0-12,85,39,139s100,61,121,58,121-9,140-30,39-27,59-77,26-97,26-97" style="fill: none; stroke: #2dd5c4; stroke-linecap: round; stroke-miterlimit: 10; stroke-width: 5px;"/>
    <path d="M196.5,917.5c-.62-.93,8.29-7,23-7,9,0,18.34,3.38,21,4,2.35,.55,24.99,10.66,27,12,3,2,23.48-10.98,49-3" style="fill: none; stroke: #2dd5c4; stroke-linecap: round; stroke-miterlimit: 10; stroke-width: 5px;"/>
    <circle cx="375.5" cy="780.5" r="2" style="fill: none; stroke: #fff; stroke-linecap: round; stroke-miterlimit: 10; stroke-width: 5px;"/>
    <path d="M215.61,819.04s-21.11,6.46-21.11,11.96c0,12.5-10,24.5,0,33.22,6.19,5.39,21.11,5.7,21.11,5.7,0,0,19.89,7.58,23.89,7.58,12,0,18.88-12.46,27.44-28.73s-51.33-29.73-51.33-29.73Z" style="fill: none; stroke: #2dd5c4; stroke-linecap: round; stroke-miterlimit: 10; stroke-width: 5px;"/>
    <path d="M326.82,704.53c-35.32,20.97-20.32,40.97-20.32,40.97-8,5-90.89,73.54-90.89,73.54" style="fill: none; stroke: #2dd5c4; stroke-linecap: round; stroke-miterlimit: 10; stroke-width: 5px;"/>
    <circle cx="250.5" cy="756.5" r="3" style="fill: none; stroke: #fff; stroke-linecap: round; stroke-miterlimit: 10; stroke-width: 5px;"/>
    <path d="M326.82,791.5s10.68,0,18.68-7,19-17.23,19-17.23c0,0,14.38-1.39,24.82,2.49,4.91,1.82,6.7,6.08,10.22,9.63,12.97,13.11-9.18,29.34-20.11,29.23s-32.28-6.1-52.6-17.11Z" style="fill: none; stroke: #2dd5c4; stroke-linecap: round; stroke-miterlimit: 10; stroke-width: 5px;"/>
    <path d="M256.5,750.5s-7-16-20-9-16.61,21.29-16,25,4.33,18.2,17.67,13.6,19.33-14.6,18.33-29.6Z" style="fill: none; stroke: #2dd5c4; stroke-linecap: round; stroke-miterlimit: 10; stroke-width: 5px;"/>
    <path d="M250.47,742.6s-13.97-1.1-20.97,18.9c-3.06,8.76-1.55,20.61,3.22,19.31" style="fill: none; stroke: #2dd5c4; stroke-linecap: round; stroke-miterlimit: 10; stroke-width: 5px;"/>
    <path d="M215.61,869.92s-2.44,39.9,4.22,41.24" style="fill: none; stroke: #2dd5c4; stroke-linecap: round; stroke-miterlimit: 10; stroke-width: 5px;"/>
    <circle cx="240" cy="758" r="1.5" style="fill: none; stroke: #fff; stroke-linecap: round; stroke-miterlimit: 10; stroke-width: 5px;"/>
    <path d="M198.5,917.5s5.95-2,16-2c8,0,20-5,40,5" style="fill: none; stroke: #2dd5c4; stroke-linecap: round; stroke-miterlimit: 10; stroke-width: 5px;"/>
    <circle cx="253" cy="899" r="1.5" style="fill: none; stroke: #2dd5c4; stroke-linecap: round; stroke-miterlimit: 10; stroke-width: 3px;"/>
    <circle cx="240.5" cy="891.5" r="1.5" style="fill: none; stroke: #2dd5c4; stroke-linecap: round; stroke-miterlimit: 10; stroke-width: 4px;"/>
    <path d="M180.85,865.26s-42.3-26.63-73.73-11.54" style="fill: none; stroke: #2dd5c4; stroke-linecap: round; stroke-miterlimit: 10; stroke-width: 2px;"/>
    <path d="M174.11,875.67s-49.77-4.58-70.96,23.1" style="fill: none; stroke: #2dd5c4; stroke-linecap: round; stroke-miterlimit: 10; stroke-width: 2px;"/>
    <path d="M289.34,871.69s43.3-24.96,74.12-8.66" style="fill: none; stroke: #2dd5c4; stroke-linecap: round; stroke-miterlimit: 10; stroke-width: 2px;"/>
    <path d="M300.68,881.17s49.11-9.26,72.83,16.3" style="fill: none; stroke: #2dd5c4; stroke-linecap: round; stroke-miterlimit: 10; stroke-width: 2px;"/>
    <path d="M194.5,831s13-.5,12,10.5-7,19.18-10,7.59" style="fill: none; stroke: #2dd5c4; stroke-linecap: round; stroke-miterlimit: 10; stroke-width: 5px;"/>
    <path d="M244.13,864.6s-28.63-3.1-18.63-13.1,21.26-13,18.63,0" style="fill: none; stroke: #2dd5c4; stroke-linecap: round; stroke-miterlimit: 10; stroke-width: 5px;"/>
    <path d="M350.24,780.5c-7.93,16.25,3.76,22.99,3.76,22.99l19.44,4.63s-8.94-1.61-8.94-20.29c0-12.06,18.18-19.82,18.18-19.82" style="fill: none; stroke: #2dd5c4; stroke-linecap: round; stroke-miterlimit: 10; stroke-width: 5px;"/>
    <polygon points="332.78 794.57 347.07 800.81 349.9 797.69 347.77 782.5 332.78 794.57" style="fill: #2dd5c4;"/>
  </g>
  <g id="uuid-1602ac98-36f5-45bd-a424-46cd3a28fe2f">
    <rect x="2.5" y="2.5" width="708" height="1633" rx="38.14" ry="38.14" style="fill: none; stroke: #2dd5c4; stroke-linecap: round; stroke-miterlimit: 10; stroke-width: 5px;"/>
    <line x1="2.5" y1="288.5" x2="280.5" y2="2.5" style="fill: none; stroke: #2dd5c4; stroke-linecap: round; stroke-miterlimit: 10; stroke-width: 5px;"/>
    <line x1="2.5" y1="407.5" x2="403.5" y2="2.5" style="fill: none; stroke: #2dd5c4; stroke-linecap: round; stroke-miterlimit: 10; stroke-width: 5px;"/>
    <line x1="2.5" y1="1526.5" x2="710.5" y2="1524.5" style="fill: none; stroke: #2dd5c4; stroke-linecap: round; stroke-miterlimit: 10; stroke-width: 5px;"/>
    <text transform="translate(128.08 249.91) rotate(-42.51)" style="fill: #2dd5c4; font-family: MVBoli, MV Boli; font-size: 66.81px;"><tspan x="0" y="0">WOW</tspan></text>
    <text transform="translate(118.13 501.62)" style="fill: #2dd5c4; font-family: MVBoli, MV Boli; font-size: 109.68px;"><tspan x="0" y="0">Such Ads</tspan></text>
    <text transform="translate(205.91 1208.74)" style="fill: #2dd5c4; font-family: MVBoli, MV Boli; font-size: 97.67px;"><tspan x="0" y="0">Much </tspan><tspan x="-40.65" y="117.2">Revenue</tspan></text>
  </g>
</svg>