<svg id="visual" height="100%" width="100%" viewBox="0 0 900 600" preserveAspectRatio="none" xmlns="http://www.w3.org/2000/svg" xmlns:xlink="http://www.w3.org/1999/xlink" version="1.1"><path d="M0 241L21.5 233.8C43 226.7 86 212.3 128.8 197.8C171.7 183.3 214.3 168.7 257.2 171C300 173.3 343 192.7 385.8 207.7C428.7 222.7 471.3 233.3 514.2 223.5C557 213.7 600 183.3 642.8 187.8C685.7 192.3 728.3 231.7 771.2 229.3C814 227 857 183 878.5 161L900 139L900 601L878.5 601C857 601 814 601 771.2 601C728.3 601 685.7 601 642.8 601C600 601 557 601 514.2 601C471.3 601 428.7 601 385.8 601C343 601 300 601 257.2 601C214.3 601 171.7 601 128.8 601C86 601 43 601 21.5 601L0 601Z" fill="#fa7268"></path><path d="M0 234L21.5 229C43 224 86 214 128.8 210.5C171.7 207 214.3 210 257.2 234.2C300 258.3 343 303.7 385.8 308.7C428.7 313.7 471.3 278.3 514.2 270.8C557 263.3 600 283.7 642.8 275.5C685.7 267.3 728.3 230.7 771.2 236.5C814 242.3 857 290.7 878.5 314.8L900 339L900 601L878.5 601C857 601 814 601 771.2 601C728.3 601 685.7 601 642.8 601C600 601 557 601 514.2 601C471.3 601 428.7 601 385.8 601C343 601 300 601 257.2 601C214.3 601 171.7 601 128.8 601C86 601 43 601 21.5 601L0 601Z" fill="#fc957b"></path><path d="M0 309L21.5 309C43 309 86 309 128.8 319C171.7 329 214.3 349 257.2 350.5C300 352 343 335 385.8 322.5C428.7 310 471.3 302 514.2 311.5C557 321 600 348 642.8 366C685.7 384 728.3 393 771.2 377.8C814 362.7 857 323.3 878.5 303.7L900 284L900 601L878.5 601C857 601 814 601 771.2 601C728.3 601 685.7 601 642.8 601C600 601 557 601 514.2 601C471.3 601 428.7 601 385.8 601C343 601 300 601 257.2 601C214.3 601 171.7 601 128.8 601C86 601 43 601 21.5 601L0 601Z" fill="#fdb596"></path><path d="M0 414L21.5 415.8C43 417.7 86 421.3 128.8 424.2C171.7 427 214.3 429 257.2 436.2C300 443.3 343 455.7 385.8 448.8C428.7 442 471.3 416 514.2 398.3C557 380.7 600 371.3 642.8 377.7C685.7 384 728.3 406 771.2 412.3C814 418.7 857 409.3 878.5 404.7L900 400L900 601L878.5 601C857 601 814 601 771.2 601C728.3 601 685.7 601 642.8 601C600 601 557 601 514.2 601C471.3 601 428.7 601 385.8 601C343 601 300 601 257.2 601C214.3 601 171.7 601 128.8 601C86 601 43 601 21.5 601L0 601Z" fill="#fed2b8"></path><path d="M0 549L21.5 540.7C43 532.3 86 515.7 128.8 505.5C171.7 495.3 214.3 491.7 257.2 498.2C300 504.7 343 521.3 385.8 528.3C428.7 535.3 471.3 532.7 514.2 523.8C557 515 600 500 642.8 486.7C685.7 473.3 728.3 461.7 771.2 469C814 476.3 857 502.7 878.5 515.8L900 529L900 601L878.5 601C857 601 814 601 771.2 601C728.3 601 685.7 601 642.8 601C600 601 557 601 514.2 601C471.3 601 428.7 601 385.8 601C343 601 300 601 257.2 601C214.3 601 171.7 601 128.8 601C86 601 43 601 21.5 601L0 601Z" fill="#ffeddf"></path></svg>