<svg id="visual" preserveAspectRatio="none" viewBox="0 0 900 600" width="900" height="600" xmlns="http://www.w3.org/2000/svg" xmlns:xlink="http://www.w3.org/1999/xlink" version="1.1"><rect x="0" y="0" width="900" height="600" fill="#1a385e"></rect><path d="M0 114L21.5 138.2C43 162.3 86 210.7 128.8 218.3C171.7 226 214.3 193 257.2 180.5C300 168 343 176 385.8 197.5C428.7 219 471.3 254 514.2 261.8C557 269.7 600 250.3 642.8 242.7C685.7 235 728.3 239 771.2 218.7C814 198.3 857 153.7 878.5 131.3L900 109L900 601L878.5 601C857 601 814 601 771.2 601C728.3 601 685.7 601 642.8 601C600 601 557 601 514.2 601C471.3 601 428.7 601 385.8 601C343 601 300 601 257.2 601C214.3 601 171.7 601 128.8 601C86 601 43 601 21.5 601L0 601Z" fill="#2dd5c4"></path><path d="M0 350L21.5 328.3C43 306.7 86 263.3 128.8 256.2C171.7 249 214.3 278 257.2 283.8C300 289.7 343 272.3 385.8 281.3C428.7 290.3 471.3 325.7 514.2 317.5C557 309.3 600 257.7 642.8 256.8C685.7 256 728.3 306 771.2 323.2C814 340.3 857 324.7 878.5 316.8L900 309L900 601L878.5 601C857 601 814 601 771.2 601C728.3 601 685.7 601 642.8 601C600 601 557 601 514.2 601C471.3 601 428.7 601 385.8 601C343 601 300 601 257.2 601C214.3 601 171.7 601 128.8 601C86 601 43 601 21.5 601L0 601Z" fill="#00adbc"></path><path d="M0 403L21.5 398.3C43 393.7 86 384.3 128.8 371.5C171.7 358.7 214.3 342.3 257.2 332.3C300 322.3 343 318.7 385.8 319.3C428.7 320 471.3 325 514.2 331.5C557 338 600 346 642.8 338.7C685.7 331.3 728.3 308.7 771.2 299.8C814 291 857 296 878.5 298.5L900 301L900 601L878.5 601C857 601 814 601 771.2 601C728.3 601 685.7 601 642.8 601C600 601 557 601 514.2 601C471.3 601 428.7 601 385.8 601C343 601 300 601 257.2 601C214.3 601 171.7 601 128.8 601C86 601 43 601 21.5 601L0 601Z" fill="#0084a5"></path><path d="M0 373L21.5 386.8C43 400.7 86 428.3 128.8 427.2C171.7 426 214.3 396 257.2 397.2C300 398.3 343 430.7 385.8 446C428.7 461.3 471.3 459.7 514.2 454.2C557 448.7 600 439.3 642.8 426.3C685.7 413.3 728.3 396.7 771.2 405.7C814 414.7 857 449.3 878.5 466.7L900 484L900 601L878.5 601C857 601 814 601 771.2 601C728.3 601 685.7 601 642.8 601C600 601 557 601 514.2 601C471.3 601 428.7 601 385.8 601C343 601 300 601 257.2 601C214.3 601 171.7 601 128.8 601C86 601 43 601 21.5 601L0 601Z" fill="#105d84"></path><path d="M0 505L21.5 496.2C43 487.3 86 469.7 128.8 467C171.7 464.3 214.3 476.7 257.2 477.2C300 477.7 343 466.3 385.8 460.2C428.7 454 471.3 453 514.2 454.5C557 456 600 460 642.8 464.5C685.7 469 728.3 474 771.2 476.8C814 479.7 857 480.3 878.5 480.7L900 481L900 601L878.5 601C857 601 814 601 771.2 601C728.3 601 685.7 601 642.8 601C600 601 557 601 514.2 601C471.3 601 428.7 601 385.8 601C343 601 300 601 257.2 601C214.3 601 171.7 601 128.8 601C86 601 43 601 21.5 601L0 601Z" fill="#1a385e"></path></svg>