<?xml version="1.0" encoding="UTF-8"?>
<svg xmlns="http://www.w3.org/2000/svg" xmlns:xlink="http://www.w3.org/1999/xlink" viewBox="0 0 965.6423 411">
  <defs>
    <style>
      .uuid-5cd2954f-8ffc-42ff-afeb-6eadbb3d4f98 {
        fill: url(#uuid-4318d5dc-614f-4c87-9345-11804e2734b6);
      }

      .uuid-0f84d1bb-c139-47d7-b313-836b7c32d313 {
        opacity: .5;
      }

      .uuid-8bfe6a10-1b31-4405-a975-6565e15042c4, .uuid-fa33f599-138e-4f5d-868e-4903ba4c76c2, .uuid-a895877a-3a65-43e6-b9ff-1dcc9f3d184c {
        stroke: #2dd5c4;
      }

      .uuid-8bfe6a10-1b31-4405-a975-6565e15042c4, .uuid-fa33f599-138e-4f5d-868e-4903ba4c76c2, .uuid-a895877a-3a65-43e6-b9ff-1dcc9f3d184c, .uuid-e6e46106-01e2-449d-bc58-1c752052c1d9 {
        fill: none;
      }

      .uuid-8bfe6a10-1b31-4405-a975-6565e15042c4, .uuid-a895877a-3a65-43e6-b9ff-1dcc9f3d184c {
        stroke-width: 8px;
      }

      .uuid-e8f6cce0-9d4f-461d-a171-e879adb57800 {
        clip-path: url(#uuid-d56ab187-68d2-41f6-865e-9df7407b2b5c);
      }

      .uuid-486dc5bb-0380-4232-b46f-3baa38b17b17 {
        fill: url(#uuid-1391c27b-b3b7-45f1-a94f-1442abb7d8c5);
      }

      .uuid-fa33f599-138e-4f5d-868e-4903ba4c76c2 {
        stroke-miterlimit: 15.6789;
        stroke-width: 4px;
      }

      .uuid-50b9e8cb-ce57-4f46-8012-f0c413f9b376 {
        clip-path: url(#uuid-591915c6-2072-49aa-8857-f7e130b5bda7);
      }

      .uuid-a895877a-3a65-43e6-b9ff-1dcc9f3d184c {
        stroke-miterlimit: 4;
      }

      .uuid-a0d24d6e-0650-48c5-bb5d-3e4a8443858b {
        fill: url(#uuid-e9b60cc6-9e83-40d6-afb8-cf62bd1163d2);
      }

      .uuid-dac66247-8a1f-4176-b665-4adf45c773a0 {
        clip-path: url(#uuid-8760b0a0-83a0-4bd9-a0db-4ab032facdfa);
      }

      .uuid-a7fa6a50-18c8-44c8-9629-44ed812c10c2 {
        opacity: .69;
      }

      .uuid-a7fa6a50-18c8-44c8-9629-44ed812c10c2, .uuid-3b498fd0-c49c-4698-8f9c-a0ffa631acbc, .uuid-db0b52ea-3dd2-48d4-b90c-2c604556e5ee {
        fill: #2dd5c4;
      }

      .uuid-d24c7765-e73d-475a-a0f9-63df6eb584e5 {
        fill: url(#uuid-ad3f3add-da6d-454b-9ed0-6cd5e359112d);
      }

      .uuid-db0b52ea-3dd2-48d4-b90c-2c604556e5ee {
        fill-rule: evenodd;
      }
    </style>
    <clipPath id="uuid-d56ab187-68d2-41f6-865e-9df7407b2b5c">
      <path d="M449.2681,238.7684l-32.6505,28.59c-1.2231,1.0702-1.7535,2.6213-1.3975,4.0694l9.5409,38.8099c.3562,1.4489,1.5451,2.5765,3.125,2.9576l42.1911,10.2073c1.5766,.3794,3.3014-.0446,4.5207-1.1113l32.6432-28.6043c1.216-1.0685,1.7482-2.62,1.3921-4.0681l-9.5409-38.8099c-.356-1.4481-1.5469-2.5761-3.1285-2.9568l-42.1758-10.195c-.7904-.1888-1.6165-.1776-2.3981,.0145s-1.5186,.5653-2.1315,1.099" style="fill: #2dd5c4;"/>
    </clipPath>
    <linearGradient id="uuid-ad3f3add-da6d-454b-9ed0-6cd5e359112d" x1="430.0944" y1="259.3304" x2="514.2622" y2="259.3304" gradientTransform="translate(-58.6346 141.5127) rotate(-13.8115)" gradientUnits="userSpaceOnUse">
      <stop offset="0" stop-color="#2dd5c4" stop-opacity="0"/>
      <stop offset="1" stop-color="#2dd5c4"/>
    </linearGradient>
    <clipPath id="uuid-8760b0a0-83a0-4bd9-a0db-4ab032facdfa">
      <path d="M426.2941,312.4739c.4605,.3291,.9969,.5803,1.5902,.7219l36.1899,8.7558,6.0249,1.4447c.9013,.2182,1.8556,.1696,2.7362-.1103,.2931-.0949,.5792-.2185,.8523-.3643l23.514-74.5815c-.3745-.2208-.7888-.3811-1.2358-.4911l-27.6233-6.6802-14.5957-3.5067c-.4147-.101-.8469-.1385-1.2763-.1344l-26.1764,74.946Z" style="fill: url(#uuid-ad3f3add-da6d-454b-9ed0-6cd5e359112d);"/>
    </clipPath>
    <linearGradient id="uuid-e9b60cc6-9e83-40d6-afb8-cf62bd1163d2" x1="-277.5741" y1="694.4151" x2="-276.8523" y2="694.4151" gradientTransform="translate(126397.1046 41117.9259) rotate(-50.2715) scale(177.0637 -177.0637)" xlink:href="#uuid-ad3f3add-da6d-454b-9ed0-6cd5e359112d"/>
    <linearGradient id="uuid-4318d5dc-614f-4c87-9345-11804e2734b6" x1="431.5788" y1="259.2527" x2="515.4466" y2="259.2527" gradientTransform="translate(-58.6346 141.5127) rotate(-13.8115)" gradientUnits="userSpaceOnUse">
      <stop offset="0" stop-color="#2dd5c4" stop-opacity="0"/>
      <stop offset="1" stop-color="#2dd5c4"/>
    </linearGradient>
    <clipPath id="uuid-591915c6-2072-49aa-8857-f7e130b5bda7">
      <path d="M450.9486,237.804c-.6142,.2102-1.1848,.5365-1.6796,.9642l-32.5576,28.508,56.4083,55.9062c.5419-.2093,1.0514-.5121,1.4852-.8928l32.6467-28.6051c1.0068-.8851,1.5471-2.097,1.5034-3.309l-56.4802-52.8273c-.3151,.0208-.6239,.0671-.9348,.1435-.1243,.0306-.2473,.0667-.3691,.1077" style="fill: url(#uuid-4318d5dc-614f-4c87-9345-11804e2734b6);"/>
    </clipPath>
    <linearGradient id="uuid-1391c27b-b3b7-45f1-a94f-1442abb7d8c5" x1="-274.8145" y1="695.6444" x2="-274.1689" y2="695.6444" gradientTransform="translate(56656.3807 79512.8251) rotate(-13.8115) scale(129.8891 -129.8891)" gradientUnits="userSpaceOnUse">
      <stop offset="0" stop-color="#2dd5c4" stop-opacity="0"/>
      <stop offset="1" stop-color="#2dd5c4"/>
    </linearGradient>
  </defs>
  <g id="uuid-cbeb18f0-c243-46e8-8ca3-a5bde7857ca7" data-name="node">
    <g>
      <path d="M541.5554,392.2614c-1.2967,.3188-2.6596,.3299-3.9409,.0217l-13.3931-3.3846c-1.9876-.4534-1.2015-.9798-.6625-1.3043,2.1766-1.3215,2.6141-1.6067,4.8164-3.5095,.2313-.2006,.5895-.2379,.8956-.161l10.2919,2.6113c.3678,.0787,.8341-.0359,1.0995-.2703l30.9607-27.1116c.2874-.2483,.4163-.6435,.33-.9944l-9.0375-36.7621c-.0902-.3668-.3837-.6414-.7645-.7423l-39.984-9.6539c-.3717-.0947-.8069,.0123-1.0924,.2686l-30.9433,27.0904c-.3006,.2599-.4348,.6565-.3485,1.0074l9.0375,36.7621c.0863,.3509,.3818,.6334,.7604,.7179l10.9553,2.6512c5.8578,1.0715,8.3956-2.5121,7.7056-5.3191l-8.9198-36.2836c-.1274-.5183,.2275-1.0284,.8048-1.1703l4.494-1.1048c.5595-.1376,1.1194,.1476,1.2468,.666l8.9238,36.2996c1.5526,6.3157-1.3922,10.8873-8.0621,12.527-2.0516,.5044-3.668,.9017-8.6699,.0173l-10.4918-2.5284c-2.5944-.6307-4.5643-2.5142-5.1505-4.8985l-9.0375-36.7621c-.5881-2.3923,.284-4.9745,2.2942-6.7202l30.9943-27.1283c1.9667-1.6927,4.9508-2.4263,7.4604-1.834l39.9971,9.6845c2.5835,.6249,4.5604,2.4982,5.1485,4.8905l9.0375,36.7621c.5862,2.3844-.2968,4.9607-2.2942,6.7202l-30.9499,27.1174c-.9918,.8696-2.2051,1.4892-3.5195,1.8123" style="fill: #2dd5c4;"/>
      <path d="M546.2877,364.2356c-15.5248,3.8166-20.3529-1.7819-21.6722-7.1487-.1255-.5104,.2328-1.0297,.8021-1.1697l4.5828-1.1266c.5062-.1245,1.0139,.1017,1.2042,.531,1.7235,4.0226,4.3039,5.6309,13.6916,3.3231,7.4782-1.8384,10.2849-4.1368,9.4096-7.6974-.5038-2.0494-1.7842-3.3498-13.652-1.5147-9.928,1.5274-16.4043,1.0815-18.1197-5.8961-1.5801-6.4274,3.5183-11.7398,13.6343-14.2267,11.3594-2.7925,17.8606-.6362,20.4414,6.7967,.0913,.2566,.0475,.538-.1008,.7774-.1503,.2314-.3982,.4108-.6824,.4806l-4.6095,1.1332c-.4796,.1179-.9715-.0825-1.1712-.4732-2.1943-4.1369-5.2235-4.889-12.5151-3.0965-8.1621,2.0065-8.485,4.792-8.0145,6.7058,.5705,2.3206,1.8562,2.7233,13.1907,1.3237,11.226-1.3814,16.8547-.8202,18.5466,6.0618,1.7055,6.9377-3.7641,12.5021-15.0081,15.2663m33.6327-49.6113l1.1901-.2926c.977-.2402,1.0125-.9001,.9243-1.2589-.2313-.941-.9507-.7641-1.3504-.6659l-1.2256,.3013,.4616,1.916Zm-2.1887-2.6584l2.6378-.6485c.9059-.2227,2.6822-.6594,3.1292,1.1588,.3117,1.2679-.5295,1.7538-1.0321,2.0465,1.0726-.196,1.2965,.4085,1.6543,1.2508,.2063,.5328,.5551,1.4533,.8466,1.7199l-1.6253,.3996c-.1228-.3081-.8028-2.0013-.8263-2.097-.2026-.3646-.4007-.5188-.9424-.3856l-1.3411,.3297,.6783,2.7592-1.4832,.3646-1.6958-6.8979Zm-2.3277,4.2085c.7018,2.8548,3.8371,4.5364,6.99,3.7613,3.1795-.7816,5.166-3.7731,4.476-6.5801-.7038-2.8628-3.8648-4.4958-7.0177-3.7207-3.1085,.7642-5.1688,3.6469-4.4591,6.5336m12.582-3.0678c.8312,3.3812-1.5724,6.8979-5.3292,7.8215-3.7302,.917-7.5092-1.046-8.3482-4.4591-.8547-3.4768,1.67-6.9219,5.3292-7.8215,3.6858-.9061,7.4866,.9924,8.3393,4.4613" style="fill: #2dd5c4;"/>
      <path d="M396.3203,275.4298c-.3607-1.4673-1.5535-2.6032-3.1433-2.9861l-42.3958-10.1857c-.7174-.1788-1.4719-.1794-2.1989-.026l-.389,.0956c-.7153,.2012-1.3836,.5515-1.9469,1.0452l-32.839,28.6812c-1.2211,1.0782-1.7638,2.6407-1.403,4.108l12.9507,52.3238c.1784,.7257,.7625,1.3009,1.5612,1.4851,.7869,.2125,1.6572-.0015,2.2559-.5546l19.5366-16.9969c1.2267-1.1015,1.7604-2.6466,1.4032-4.0996l-6.0116-24.4536c-.3588-1.4593,.1714-3.0188,1.4008-4.0905l8.3106-7.264c.6168-.5406,1.3483-.9133,2.1388-1.1076,.778-.1913,1.6163-.2062,2.3941-.0076l10.7264,2.5823c1.587,.3794,2.7834,1.5144,3.1421,2.9737l6.0112,24.452c.3568,1.4513,1.5592,2.5764,3.1485,2.9806l25.1742,5.9969c.7938,.2023,1.6668-.0123,2.2736-.5589,.601-.5283,.8713-1.3135,.6929-2.0392l-12.7933-52.354Zm184.2117-16.3855c.0896,.3644-.0433,.7548-.3516,1.0217l-11.2767,9.8637c-.3063,.2673-.7397,.3738-1.1342,.2788l-14.5665-3.5105c-.3998-.0937-.6959-.3786-.7852-.7422l-3.2927-13.3938c-.0898-.3652,.0406-.7541,.3419-1.0227l11.2669-9.8732c.3102-.2707,.7454-.3777,1.1457-.2817l14.5692,3.5217c.4003,.0961,.6962,.3802,.786,.7454l3.2971,13.3927Zm-20.8974-100.0614c-.7918-.1791-1.6474,.0414-2.2542,.577-.6026,.5371-.866,1.3122-.6876,2.0379l12.7426,51.8337c.1255,.5104-.0608,1.0551-.4901,1.4312-.4257,.3753-1.0341,.5248-1.5898,.3908l-10.6212-2.5566c-1.5824-.3839-3.3108,.041-4.5402,1.1161l-32.8369,28.7508c-1.2275,1.0713-1.7639,2.6323-1.4072,4.0836l9.5903,39.0109c.3588,1.4593,1.5558,2.5857,3.1421,2.9737l42.4278,10.2624c1.5834,.3803,3.3135-.0451,4.5446-1.1172l32.8316-28.7724c1.2229-1.0786,1.7639-2.6323,1.4052-4.0916l-23.9012-97.2241c-.3639-1.4801-1.5955-2.6208-3.2121-2.9903l-25.1438-5.716Zm146.3196,54.651c1.2188-1.0725,1.7485-2.6302,1.3917-4.0815l-2.3243-9.4545c-.3576-1.4545-1.549-2.5848-3.1296-2.9726l-42.1821-10.2974c-1.5925-.3865-3.3244,.0393-4.5562,1.1201l-32.8286,28.7463c-1.2318,1.0808-1.7639,2.6323-1.4052,4.0916l9.5864,38.9949c.3607,1.4673,1.5732,2.6068,3.1638,2.9853l42.085,9.9408c1.5511,.3713,3.2405-.0356,4.4644-1.0721l19.8382-16.8427c.6223-.5335,.9086-1.3227,.7283-2.0563s-.7841-1.3125-1.5829-1.4966l-42.6479-10.1998c-.7987-.1842-1.4006-.755-1.579-1.4807l-3.0073-12.2328c-.1796-.7305,.0813-1.5083,.7024-2.0466l10.2771-8.9956c.6115-.5393,1.473-.7511,2.2648-.5568l13.2854,3.2031c.7899,.1864,1.3917,.7572,1.5701,1.4829l2.3642,9.6171c.1784,.7257,.7802,1.2965,1.572,1.4908,.7899,.1864,1.6602-.0276,2.2717-.5669l19.6776-17.3199Z" style="fill: #2dd5c4; fill-rule: evenodd;"/>
      <path d="M665.2824,221.6976c.2317-.2066,.5657-.2887,.8704-.214l8.1401,1.9649c.3045,.074,.5332,.2917,.6018,.5708l1.8408,7.488c.0686,.2791-.0331,.5781-.2685,.7848l-6.3012,5.5151c-.2353,.2075-.5692,.2896-.8704,.214l-8.1356-1.966c-.3098-.0727-.5421-.2896-.6107-.5687l-1.8408-7.488c-.0686-.2791,.0277-.5768,.2685-.7848l6.3056-5.5162Z" style="fill: #2dd5c4; fill-rule: evenodd;"/>
      <g style="opacity: .5;">
        <path d="M449.2681,238.7684l-32.6505,28.59c-1.2231,1.0702-1.7535,2.6213-1.3975,4.0694l9.5409,38.8099c.3562,1.4489,1.5451,2.5765,3.125,2.9576l42.1911,10.2073c1.5766,.3794,3.3014-.0446,4.5207-1.1113l32.6432-28.6043c1.216-1.0685,1.7482-2.62,1.3921-4.0681l-9.5409-38.8099c-.356-1.4481-1.5469-2.5761-3.1285-2.9568l-42.1758-10.195c-.7904-.1888-1.6165-.1776-2.3981,.0145s-1.5186,.5653-2.1315,1.099" style="fill: #2dd5c4;"/>
        <g style="clip-path: url(#uuid-d56ab187-68d2-41f6-865e-9df7407b2b5c);">
          <g transform="translate(-78.306 -164.016)">
            <path d="M535.2309,234.7073l-116.8437-20.4831-29.7183,112.3118,116.8416,20.4861,29.7204-112.3149Z" style="fill: #2dd5c4;"/>
          </g>
        </g>
      </g>
      <g>
        <path d="M426.2941,312.4739c.4605,.3291,.9969,.5803,1.5902,.7219l36.1899,8.7558,6.0249,1.4447c.9013,.2182,1.8556,.1696,2.7362-.1103,.2931-.0949,.5792-.2185,.8523-.3643l23.514-74.5815c-.3745-.2208-.7888-.3811-1.2358-.4911l-27.6233-6.6802-14.5957-3.5067c-.4147-.101-.8469-.1385-1.2763-.1344l-26.1764,74.946Z" style="fill: url(#uuid-ad3f3add-da6d-454b-9ed0-6cd5e359112d);"/>
        <g style="clip-path: url(#uuid-8760b0a0-83a0-4bd9-a0db-4ab032facdfa);">
          <g transform="translate(-78.306 -164.016)">
            <path d="M372.2616,289.3254l96.6901,72.1699,82.4029-89.5203-96.694-72.1665-82.399,89.5168Z" style="fill: url(#uuid-e9b60cc6-9e83-40d6-afb8-cf62bd1163d2);"/>
          </g>
        </g>
      </g>
      <g>
        <path d="M450.9486,237.804c-.6142,.2102-1.1848,.5365-1.6796,.9642l-32.5576,28.508,56.4083,55.9062c.5419-.2093,1.0514-.5121,1.4852-.8928l32.6467-28.6051c1.0068-.8851,1.5471-2.097,1.5034-3.309l-56.4802-52.8273c-.3151,.0208-.6239,.0671-.9348,.1435-.1243,.0306-.2473,.0667-.3691,.1077" style="fill: url(#uuid-4318d5dc-614f-4c87-9345-11804e2734b6);"/>
        <g style="clip-path: url(#uuid-591915c6-2072-49aa-8857-f7e130b5bda7);">
          <g transform="translate(-78.306 -164.016)">
            <path d="M411.8256,247.4058l21.0606,85.6692,81.4278-20.0179-21.0606-85.6692-81.4278,20.0179Z" style="fill: url(#uuid-1391c27b-b3b7-45f1-a94f-1442abb7d8c5);"/>
          </g>
        </g>
      </g>
    </g>
  </g>
  <g id="uuid-395f4aa1-3383-4af7-b22c-475f274b3bec" data-name="ps">
    <g>
      <path d="M648.5563,53.9002c-2.2543-.9139-4.6915-1.2795-7.1896-1.2186-1.5841,0-2.9855,0-4.1432,.0609-1.2186-.0609-2.0716,0-2.4981,.061v20.4722c.853,.0609,1.6451,.1219,2.3762,.1219h3.2292c2.3763,0,4.7525-.3656,7.0069-1.0967,1.9497-.5484,3.6558-1.706,4.9962-3.2293,1.2795-1.5232,1.8888-3.5948,1.8888-6.2757,.0609-1.8888-.4265-3.7776-1.4014-5.4227-1.0358-1.5841-2.4981-2.8027-4.265-3.4729Z" style="fill: #2dd5c4;"/>
      <path d="M708.8761,4.4257h-94.4402c-14.3184,0-25.8949,11.5765-25.8949,25.8949V121.1051c0,14.3184,11.5765,25.8949,25.8949,25.8949h94.4402c14.3184,0,25.8949-11.5765,25.8949-25.8949V30.3206c0-14.3184-11.5765-25.8949-25.8949-25.8949Zm-45.0266,70.9825c-2.4372,3.412-5.8492,5.9711-9.8096,7.4334-4.1432,1.5232-8.7129,2.0716-13.7091,2.0716-1.4623,0-2.4372,0-3.0465-.0609-.6093-.061-1.4623-.061-2.6199-.061v19.5583c.0609,.4265-.2437,.7921-.6702,.853h-11.8203c-.4874,0-.7312-.2437-.7312-.792V41.7144c0-.4265,.1828-.6702,.6093-.6702,1.0358,0,2.0107,0,3.4121-.061,1.4623-.0609,2.9855-.0609,4.6306-.1219,1.6451-.0609,3.4121-.0609,5.3008-.1218,1.8888-.061,3.7167-.061,5.5445-.061,4.9962,0,9.1394,.6093,12.5514,1.8888,3.0465,1.0358,5.8492,2.7418,8.1645,4.9962,1.9497,1.9497,3.473,4.326,4.4479,6.9459,.9139,2.559,1.4014,5.179,1.4014,7.9208,0,5.2399-1.2186,9.5659-3.6558,12.9779Zm43.1987,23.7015c-1.706,2.4372-4.0822,4.326-6.824,5.4227-2.9855,1.2795-6.6412,1.9497-11.0282,1.9497-2.8028,0-5.5446-.2437-8.2864-.7921-2.1325-.3656-4.265-1.0358-6.2147-1.9497-.4265-.2437-.7312-.6702-.6702-1.1577v-10.6017c0-.1828,.061-.4265,.2437-.5484,.1828-.1218,.3656-.0609,.5483,.061,2.3763,1.4014,4.8743,2.3762,7.5552,2.9855,2.3153,.6093,4.7525,.9139,7.1896,.9139,2.3153,0,3.9604-.3046,5.0572-.853,.9749-.4265,1.6451-1.4623,1.6451-2.559,0-.853-.4875-1.6451-1.4623-2.4372s-2.9855-1.706-5.9711-2.8637c-3.1074-1.0967-5.9711-2.559-8.652-4.3869-1.8888-1.3404-3.4729-3.1074-4.6306-5.179-.9749-1.9497-1.4623-4.0823-1.4014-6.2148,0-2.6199,.7311-5.1181,2.0716-7.3725,1.5232-2.4372,3.7776-4.3869,6.3976-5.6055,2.8637-1.4623,6.4585-2.1325,10.7845-2.1325,2.498,0,5.0571,.1828,7.5552,.5483,1.8279,.2437,3.5948,.7312,5.24,1.4014,.2437,.0609,.4874,.3046,.6093,.5483,.0608,.2437,.1218,.4874,.1218,.7312v9.9314c0,.2437-.1218,.4874-.3046,.6093-.5483,.1218-.8529,.1218-1.0968,0-1.8279-.9749-3.7776-1.6451-5.8491-2.0716-2.2544-.4874-4.5088-.7921-6.8241-.7921-1.2186-.061-2.4981,.1219-3.6558,.4265-.7921,.1828-1.4623,.6093-1.8888,1.2186-.3046,.4874-.4875,1.0967-.4875,1.6451s.2437,1.0968,.6093,1.5842c.5484,.6702,1.2795,1.2186,2.0716,1.6451,1.4014,.7312,2.8637,1.4014,4.326,2.0107,3.2902,1.0967,6.4586,2.6199,9.3831,4.4478,2.0106,1.2795,3.6558,2.9855,4.8134,5.0571,.9749,1.9497,1.4622,4.0823,1.4014,6.2757,.0608,2.8637-.7921,5.7274-2.3763,8.1036Z" style="fill: #2dd5c4;"/>
    </g>
  </g>
  <g id="uuid-34c88abd-8bf4-420a-837e-38a7e0175dad" data-name="figma">
    <g>
      <path id="uuid-6a8d479d-c857-4dce-a1bf-e5d11a6ab878" data-name="path0 fill" d="M799.6523,147c13.1168,0,23.7624-10.6455,23.7624-23.7624v-23.7624h-23.7624c-13.1168,0-23.7624,10.6455-23.7624,23.7624s10.6455,23.7624,23.7624,23.7624Z" style="fill: #2dd5c4;"/>
      <path id="uuid-75cafb29-1350-4db1-9880-3a4abcae0c15" data-name="path1 fill" d="M775.8899,75.7129c0-13.1168,10.6455-23.7624,23.7624-23.7624h23.7624v47.5248h-23.7624c-13.1168,0-23.7624-10.6455-23.7624-23.7624Z" style="fill: #2dd5c4;"/>
      <path id="uuid-f0af60d2-d669-4b71-9bef-ee989ad195d4" data-name="path1 fill" d="M775.8899,28.1881c0-13.1168,10.6455-23.7624,23.7624-23.7624h23.7624V51.9505h-23.7624c-13.1168,0-23.7624-10.6455-23.7624-23.7624Z" style="fill: #2dd5c4; opacity: .69;"/>
      <path id="uuid-7e801af8-15fc-482d-b818-00621f8fe1d0" data-name="path2 fill" d="M823.4147,4.4257h23.7624c13.1168,0,23.7624,10.6455,23.7624,23.7624s-10.6455,23.7624-23.7624,23.7624h-23.7624V4.4257Z" style="fill: #2dd5c4;"/>
      <path id="uuid-a7b8e3f1-2992-4cbb-bd17-26c7477cf3c8" data-name="path3 fill" d="M870.9395,75.7129c0,13.1168-10.6455,23.7624-23.7624,23.7624s-23.7624-10.6455-23.7624-23.7624,10.6455-23.7624,23.7624-23.7624,23.7624,10.6455,23.7624,23.7624Z" style="fill: #2dd5c4;"/>
    </g>
  </g>
  <g id="uuid-18b9d53a-5b2e-472d-a277-f7bbfef1e467" data-name="web">
    <path d="M192.1261,231c-49.6263,0-89.9997,40.3739-89.9997,90.0003s40.3734,89.9997,89.9997,89.9997,89.9997-40.3734,89.9997-89.9997-40.3734-90.0003-89.9997-90.0003Zm-13.8836,9.1446c-7.3055,6.2543-14.2993,14.0402-19.9181,22.3284-2.5304,3.7329-4.8054,7.5874-6.8255,11.5406h-26.5806c12.3195-17.5687,31.3419-30.1059,53.3242-33.8691Zm-58.2623,41.8329h27.8527c-4.6477,11.3049-7.2779,23.2719-7.7483,35.4603h-29.9121c.549-12.7899,4.0355-24.8312,9.8077-35.4603Zm-9.7711,43.4241h29.8723c.4582,12.3795,3.0624,24.2371,7.7743,35.4603h-27.4072c-5.9203-10.6036-9.5587-22.6454-10.2394-35.4603Zm15.3043,43.4236h26.0985c1.9904,3.7956,4.2304,7.5125,6.7273,11.143,6.6248,9.6325,13.7456,16.7973,19.7598,21.8628-21.5703-3.7318-40.28-15.9149-52.5857-33.0058Zm62.6307,30.7887c-8.8951-6.5139-19.3664-16.9035-27.3892-30.7887h27.3892v30.7887Zm0-38.7525h-31.5219c-4.7433-10.2802-8.019-22.1394-8.5691-35.4603h40.0904l.0005,35.4603h0Zm0-43.4236h-40.091c.4959-12.3811,3.3124-24.2451,8.4066-35.4603h31.6843v35.4603h0Zm0-43.4241h-27.6217c1.357-2.3902,2.8192-4.7486,4.3939-7.0719,8.1985-12.0944,17.1854-20.0142,23.2278-24.502v31.5739h0Zm85.9355,43.4241h-29.9127c-.4704-12.1884-3.1006-24.1553-7.7483-35.4603h27.8527c5.7722,10.6291,9.2593,22.6704,9.8082,35.4603Zm-14.7458-43.4241h-26.5801c-2.0202-3.9532-4.2957-7.8077-6.8255-11.5406-5.6187-8.2887-12.6147-16.0726-19.9207-22.329,21.9828,3.7632,41.0057,16.3004,53.3263,33.8696Zm-63.2259-31.5744c6.0424,4.4879,15.0293,12.4076,23.2278,24.502,1.5747,2.3233,3.0369,4.6817,4.3939,7.0719h-27.6217v-31.5739Zm0,39.5383h31.6844c5.0942,11.2152,7.9107,23.0792,8.4066,35.4603h-40.091v-35.4603h0Zm0,43.4241h40.0904c-.5495,13.3208-3.8258,25.18-8.5691,35.4603h-31.5219l.0005-35.4603h0Zm0,43.4236h27.3892c-8.0228,13.8847-18.4941,24.2748-27.3892,30.7887v-30.7887Zm10.0461,33.0058c6.0137-5.065,13.1339-12.2314,19.7583-21.8623,2.4969-3.6304,4.7369-7.3474,6.7273-11.143h26.0985c-12.3052,17.0899-31.0143,29.2729-52.5841,33.0053Zm57.6496-40.9696h-27.4078c4.7119-11.2232,7.3161-23.0802,7.7743-35.4603h29.8723c-.6806,12.8154-4.3185,24.8572-10.2388,35.4603Z" style="fill: #2dd5c4;"/>
  </g>
  <g id="uuid-77121d32-c244-4355-aacf-f74c32aa1293" data-name="react">
    <g>
      <circle cx="437.5818" cy="109.5" r="22.166" style="fill: #2dd5c4;"/>
      <g>
        <ellipse cx="437.5818" cy="109.5" rx="118.9394" ry="45.4132" style="fill: none; stroke: #2dd5c4; stroke-width: 8px;"/>
        <ellipse cx="437.5818" cy="109.5" rx="45.4132" ry="118.9394" transform="translate(3.8748 233.4611) rotate(-30)" style="fill: none; stroke: #2dd5c4; stroke-miterlimit: 4; stroke-width: 8px;"/>
        <ellipse cx="437.5818" cy="109.5" rx="118.9394" ry="45.4132" transform="translate(123.9611 433.7069) rotate(-60)" style="fill: none; stroke: #2dd5c4; stroke-miterlimit: 4; stroke-width: 8px;"/>
      </g>
    </g>
  </g>
  <g id="uuid-1ca0966e-df7d-4672-b92b-bc807d609ca1" data-name="svg">
    <g>
      <path d="M956.7904,194.3488c-.0216,.0335-.0455,.0703-.0705,.1016l-104.4187-67.5494c.0183-.0357,.0421-.0725,.0638-.1059,3.4147-5.2785,10.4696-6.7968,15.7481-3.3821,2.6443,1.7106,4.3391,4.3311,4.9501,7.1811l19.5643,12.6563-4.8846-22.7832c-2.4468-1.5829-4.2928-4.1017-4.9489-7.1755-1.3223-6.1541,2.5969-12.2125,8.7501-13.526,6.1486-1.3211,12.2037,2.5959,13.526,8.7501,.6561,3.0738,.005,6.1281-1.5757,8.5715l4.8824,22.7865,12.6563-19.5643c-.611-2.8499-.136-5.9327,1.5746-8.577,3.4169-5.2819,10.4685-6.788,15.747-3.3733,5.2785,3.4147,6.799,10.4662,3.3821,15.7481-1.7106,2.6443-4.3311,4.3391-7.1811,4.9501l-12.6563,19.5643,22.7853-4.888c1.5807-2.4435,4.0996-4.2894,7.1756-4.9489,6.1519-1.319,12.2104,2.6003,13.5259,8.7501,1.3211,6.1486-2.5981,12.207-8.7501,13.526-3.076,.6595-6.1302,.0083-8.5737-1.5724l-22.7866,4.8824,19.5643,12.6563c2.85-.611,5.9349-.1394,8.5792,1.5712,5.2818,3.4169,6.7858,10.4719,3.371,15.7504Z" style="fill: #2dd5c4;"/>
      <path d="M917.5977,174.7552l-45.9308,46.5822-9.2298-5.9708,23.6528-60.994,9.2306,5.9714-13.8537,35.7245,26.9011-27.284,9.2298,5.9708Zm1.3445,32.4712l15.7564,10.193-10.1898,15.7515c-5.6292,8.7016-17.2478,11.1926-25.9445,5.5666-8.7016-5.6292-11.1926-17.2478-5.5634-25.9494l14.4114-22.2773-.0049-.0032c5.6259-8.6965,17.2445-11.1875,25.9461-5.5584,8.7016,5.6292,11.1926,17.2478,5.5667,25.9443l-9.2306-5.9714c2.3306-3.6026,1.2943-8.4123-2.3075-10.7423s-8.4091-1.2992-10.739,2.3024l-14.4114,22.2773c-2.3306,3.6026-1.3027,8.4141,2.2991,10.7441s8.4175,1.2974,10.7442-2.2993l4.2216-6.5258-6.5258-4.2216,5.9714-9.2306h0Zm-77.142-43.3583c-1.0025-4.6964-.2226-9.776,2.592-14.1268,5.6292-8.7016,17.2446-11.1877,25.9463-5.5586,8.6965,5.6259,11.1907,17.2396,5.5615,25.9412l-9.2258-5.9682c2.33-3.6018,1.2976-8.4174-2.3042-10.7474-3.6026-2.3306-8.4171-1.2975-10.7472,2.3043-1.1653,1.8013-1.4888,3.8983-1.0761,5.8437l.0049,.0032c.4301,2.0167,1.6464,3.7787,3.3796,4.896l-.0032,.0049c4.3508,2.8146,7.1477,7.1231,8.1504,11.8197,1.0109,4.6946,.2227,9.7758-2.5887,14.1217-5.6292,8.7016-17.2478,11.1926-25.9445,5.5666-8.7016-5.6292-11.1926-17.2478-5.5634-25.9494l9.2298,5.9708c-2.3339,3.6077-1.2976,8.4173,2.3042,10.7474,3.6026,2.3306,8.4142,1.3025,10.7474-2.3042,1.1621-1.7965,1.4886-3.8984,1.0721-5.8463-.4205-1.9418-1.5775-3.7317-3.3789-4.897-4.3515-2.8135-7.1454-7.1268-8.1561-11.8215h0Z" style="fill: none; stroke: #2dd5c4; stroke-miterlimit: 15.6789; stroke-width: 4px;"/>
    </g>
  </g>
  <g id="uuid-974b2c65-b6ff-4b32-aff7-7ee89a394b51" data-name="database">
    <path d="M859.6739,230.3137c-3.1556-11.6903-26.6425-23.1899-67.7277-23.1899s-64.5749,11.4996-67.7277,23.1899c-.2289,.4006-.3979,.8393-.3979,1.3353v100.8258c0,.4415,.1172,.8584,.3188,1.229,3.2183,13.339,32.0108,23.2962,67.8067,23.2962,35.7141,0,64.4604-9.9164,67.7849-23.2063,.218-.3897,.3406-.8393,.3406-1.3189v-100.8258c0-.496-.169-.9347-.3979-1.3353Zm-5.2675,69.4199c-.0763,.3297-.1826,.6567-.3161,.9892-.109,.2698-.2425,.5396-.3897,.8093-.1826,.3352-.3869,.6704-.6295,1.0055-.1799,.2534-.3842,.5041-.5968,.7548-.3025,.357-.624,.714-.9892,1.0682-.2207,.2153-.4632,.4278-.7085,.6431-.4469,.3897-.9129,.7766-1.4334,1.1609-.2235,.1662-.4632,.327-.7003,.4905-.6159,.4251-1.259,.8475-1.9647,1.2617-.1853,.1117-.3842,.218-.5777,.327-.8121,.4578-1.6595,.9129-2.5751,1.3543-.1172,.0572-.2398,.1117-.3597,.1662-1.0219,.4823-2.0901,.9565-3.2319,1.4143-.0327,.0136-.0654,.0245-.0981,.0382-6.1885,2.4716-14.1047,4.5508-23.3289,5.9133-.0463,.0054-.0927,.0109-.139,.0191-1.7931,.2643-3.6325,.4987-5.5209,.7058-.3079,.0327-.6322,.0545-.9429,.0872-1.6486,.1717-3.3163,.3297-5.0331,.4551-.7848,.0572-1.6078,.0845-2.4062,.1335-1.2917,.0763-2.5697,.1608-3.8941,.2071-2.1637,.0681-4.3709,.1117-6.6245,.1117s-4.4609-.0436-6.6273-.1199c-1.3244-.0463-2.6024-.1335-3.8941-.2071-.7984-.0463-1.6214-.0763-2.4062-.1335-1.7168-.1254-3.3845-.2834-5.0331-.4551-.3107-.0327-.6349-.0545-.9429-.0872-1.8884-.2071-3.7278-.4442-5.5209-.7058-.0463-.0054-.0927-.0109-.139-.0191-9.2242-1.3625-17.1404-3.4417-23.3289-5.9133-.0327-.0109-.0654-.0245-.0981-.0382-1.1418-.4578-2.2127-.932-3.2319-1.4143-.1172-.0572-.2425-.1117-.3597-.1662-.9156-.4415-1.7631-.8938-2.5751-1.3543-.1908-.109-.3924-.2153-.5777-.327-.7058-.4142-1.3489-.8366-1.9647-1.2617-.2344-.1635-.4769-.3243-.7003-.4905-.5205-.3842-.9865-.7712-1.4334-1.1609-.2425-.2125-.4878-.4251-.7085-.6431-.3652-.3543-.6867-.7085-.9892-1.0682-.2126-.2507-.4169-.5014-.5968-.7548-.2398-.3352-.4442-.6704-.6295-1.0055-.1472-.2698-.278-.5396-.3897-.8093-.1335-.3297-.2398-.6595-.3161-.9892-.1008-.4333-.2125-.8747-.2125-1.3135,0-.3079,.0354-.6159,.0845-.9211,.0681-.4115,.03-.823-.0845-1.2126v-20.2306c.0763,.0708,.1717,.139,.2507,.2098,.5941,.5232,1.199,1.0437,1.8803,1.5451,10.2652,7.7636,30.7928,13.7968,60.5445,13.7968,29.6264,0,50.1023-5.9841,60.411-13.7014,.823-.5995,1.5642-1.2181,2.2618-1.8476l.0027-.0027v20.2306c-.1145,.3897-.1526,.8012-.0845,1.2126,.0518,.3052,.0845,.6131,.0845,.9211,0,.4387-.1117,.8802-.2153,1.3216Zm.2153-56.3862v20.2306c-.1145,.3897-.1526,.8012-.0845,1.2126,.0518,.3052,.0845,.6131,.0845,.9211,0,.4387-.1117,.8802-.2153,1.3216-.0763,.3297-.1826,.6567-.3161,.9892-.109,.2698-.2425,.5396-.3897,.8093-.1826,.3352-.3869,.6704-.6295,1.0055-.1799,.2534-.3842,.5041-.5968,.7548-.3025,.357-.624,.714-.9892,1.0682-.2207,.2153-.4632,.4278-.7085,.6431-.4469,.3897-.9129,.7766-1.4334,1.1609-.2235,.1662-.4632,.327-.7003,.4905-.6159,.4251-1.259,.8475-1.9647,1.2617-.1853,.1117-.3842,.218-.5777,.327-.8121,.4578-1.6595,.9129-2.5751,1.3543-.1172,.0572-.2398,.1117-.3597,.1662-1.0219,.4823-2.0901,.9565-3.2319,1.4143-.0327,.0136-.0654,.0245-.0981,.0382-6.1885,2.4716-14.1047,4.5508-23.3289,5.9133-.0463,.0055-.0927,.0109-.139,.0191-1.7931,.2643-3.6325,.4987-5.5209,.7058-.3079,.0327-.6322,.0545-.9429,.0872-1.6486,.1717-3.3163,.3297-5.0331,.4551-.7848,.0572-1.6078,.0845-2.4062,.1335-1.2917,.0763-2.5697,.1608-3.8941,.2071-2.1637,.0681-4.3709,.1117-6.6245,.1117s-4.4609-.0436-6.6273-.1199c-1.3244-.0463-2.6024-.1335-3.8941-.2071-.7984-.0463-1.6214-.0763-2.4062-.1335-1.7168-.1253-3.3845-.2834-5.0331-.4551-.3107-.0327-.6349-.0545-.9429-.0872-1.8884-.2071-3.7278-.4442-5.5209-.7058-.0463-.0055-.0927-.0109-.139-.0191-9.2242-1.3625-17.1404-3.4417-23.3289-5.9133-.0327-.0109-.0654-.0245-.0981-.0382-1.1418-.4578-2.2127-.932-3.2319-1.4143-.1172-.0572-.2425-.1117-.3597-.1662-.9156-.4415-1.7631-.8938-2.5751-1.3543-.1908-.109-.3924-.2153-.5777-.327-.7058-.4142-1.3489-.8366-1.9647-1.2617-.2344-.1635-.4769-.3243-.7003-.4905-.5205-.3842-.9865-.7712-1.4334-1.1609-.2425-.2125-.4878-.4251-.7085-.6431-.3652-.3543-.6867-.7085-.9892-1.0682-.2126-.2507-.4169-.5014-.5968-.7548-.2398-.3352-.4442-.6704-.6295-1.0055-.1472-.2698-.278-.5396-.3897-.8093-.1335-.3297-.2398-.6595-.3161-.9892-.1008-.4333-.2125-.8747-.2125-1.3135,0-.3079,.0354-.6159,.0845-.9211,.0681-.4115,.03-.823-.0845-1.2126v-20.2306c.327,.297,.7003,.5886,1.0546,.8829,.1962,.1635,.3788,.327,.5859,.4905,.8175,.6431,1.7004,1.278,2.6569,1.8966,.1989,.1281,.4224,.2534,.6295,.3815,.8012,.4987,1.6486,.9865,2.5397,1.4661,.3297,.1771,.6595,.3515,1.0001,.5259,.9946,.5069,2.0383,1.0001,3.1365,1.477,.1799,.079,.3434,.1608,.5259,.2371,1.278,.5423,2.6351,1.06,4.0467,1.5614,.3897,.139,.7984,.2698,1.199,.406,1.1227,.3788,2.2836,.7412,3.4853,1.0927,.4333,.1253,.8584,.2562,1.3026,.3761,1.5941,.4415,3.2401,.8611,4.9677,1.2481,.2371,.0545,.4932,.0981,.733,.1499,1.5233,.3325,3.1038,.6404,4.7279,.9292,.5505,.0981,1.1091,.1908,1.6704,.2834,1.5451,.2534,3.1365,.4851,4.7688,.6976,.4197,.0545,.8202,.1172,1.2453,.169,2.0274,.2453,4.1257,.4551,6.2812,.6349,.5314,.0436,1.0846,.0763,1.6241,.1145,1.7249,.1253,3.488,.2289,5.292,.3107,.6567,.03,1.3107,.0599,1.9811,.0845,2.349,.079,4.7415,.1362,7.2213,.1362s4.8723-.0572,7.2213-.1362c.6676-.0245,1.3216-.0545,1.9811-.0845,1.804-.0818,3.567-.1853,5.292-.3107,.5396-.0409,1.09-.0708,1.6241-.1145,2.1555-.1771,4.2538-.3897,6.2812-.6349,.4251-.0518,.8257-.1145,1.2453-.169,1.6323-.2125,3.221-.4442,4.7688-.6976,.5614-.0927,1.12-.1853,1.6704-.2834,1.6241-.2889,3.2046-.5968,4.7279-.9292,.2398-.0518,.496-.0981,.733-.1499,1.7277-.387,3.3736-.8093,4.9677-1.2481,.4442-.1226,.8693-.2507,1.3026-.3761,1.2017-.3515,2.3626-.714,3.4853-1.0927,.4006-.1362,.8093-.2671,1.199-.406,1.4116-.5014,2.7713-1.0192,4.0467-1.5614,.1826-.0763,.3461-.1581,.5259-.2371,1.0982-.4796,2.1419-.9701,3.1365-1.477,.3406-.1744,.6731-.3488,1.0001-.5259,.8911-.4769,1.7386-.9647,2.5397-1.4661,.2071-.1281,.4306-.2534,.6295-.3815,.9565-.6186,1.8394-1.2508,2.6569-1.8966,.2044-.1635,.3869-.327,.5859-.4905,.3542-.2943,.7276-.5859,1.0546-.8829Zm-62.6755-30.7737c36.9377,0,62.6755,10.7693,62.6755,20.4377s-25.7378,20.4377-62.6755,20.4377-62.6755-10.7693-62.6755-20.4377,25.7378-20.4377,62.6755-20.4377Zm62.6755,119.0917c-.0382,.1199-.0654,.2425-.0872,.3679-1.5451,9.4259-27.0649,19.5166-62.5883,19.5166s-61.0432-10.0908-62.5883-19.5166c-.0218-.1226-.0518-.2425-.0872-.357v-22.9283c.0763,.0709,.1717,.139,.2507,.2098,.5941,.5232,1.199,1.0437,1.8803,1.5451,10.2652,7.7636,30.7928,13.7968,60.5445,13.7968,29.6264,0,50.1023-5.9841,60.411-13.7014,.823-.5995,1.5642-1.2181,2.2618-1.8476l.0027-.0027v22.9174Z" style="fill: #2dd5c4;"/>
  </g>
  <g id="uuid-d2569c3a-9f44-4bdb-9786-db55a2f9d1eb" data-name="htmlcss">
    <g id="uuid-4474a334-325b-4eef-aa3e-0c634e5f6987" data-name="html">
      <path d="M0,95.2857l7.6305-2.6326,2.6097,7.5642,7.0334-2.4265-2.6097-7.5642,7.6305-2.6326,7.8977,22.8916-7.6305,2.6326-2.6326-7.6305-6.967,2.4037,2.6326,7.6305-7.6969,2.6555m27.1148-26.4323l-6.7348,2.3235-2.6326-7.6305,21.1332-7.2911,2.6326,7.6305-6.7679,2.335,5.2652,15.2611-7.6305,2.6326m9.8515-29.0152l7.9955-2.7585,7.6915,6.3678,2.1287-9.7558,7.9955-2.7585,7.8977,22.8916-7.6305,2.6326-3.9145-11.3463-2.5028,10.0705-8.18-6.3849,3.9145,11.3463-7.4978,2.5868m21.6955-33.1014l7.6305-2.6326,5.288,15.3274,10.8154-3.7314,2.6097,7.5642-18.446,6.364" style="fill: #2dd5c4;"/>
      <path d="M120.6644,91.0037L.3011,132.5297l53.3441,119.1075,53.8268-3.3493,44.6172-30.6888-31.4249-126.5955Zm-22.0665,131.2398l-33.8962,2.0419-10.2843-22.9221,15.1284-5.2194,5.2166,11.6767,18.374-1.3,15.2335-10.2947-4.9948-20.1806-18.5787,6.4098-.0115-.0332-33.6407,11.6062-19.8177-44.0984,37.7546-13.0255,37.7545-13.0255,3.803,15.5427-36.2947,12.5219-21.2991,7.3483,6.7158,14.9462,19.8394-6.8447,35.0009-12.0755,11.8087,47.6783-27.8408,19.1629,.0292,.0848Z" style="fill: #2dd5c4;"/>
    </g>
  </g>
  <g id="uuid-21904def-9f8f-458c-8efb-dd83c97b97cf" data-name="Layer 9">
    <g id="uuid-2be6531c-a197-4fd1-b321-c9f3a713f945" data-name="css" transform="translate(-193.633,-276.3622)">
      <g id="uuid-928f0cb1-a118-424a-9a2d-dd6a32c6a365" data-name="g3013" transform="translate(119,276.3622)">
        <path id="uuid-19da1ba1-286b-4d04-b7db-786ad25bcd21" data-name="path2999" d="M227.1863,44.3892l18.9575-6.5405,2.7351,7.9277-11.0298,3.8054,2.7351,7.9277,11.0298-3.8054,2.7351,7.9277-18.9575,6.5405-8.2053-23.7831Z" style="fill: #2dd5c4;"/>
        <path id="uuid-c86c480d-257f-4ff3-aa5c-b48341016df7" data-name="path3001" d="M249.9354,36.5407l18.9575-6.5405,2.3783,6.8937-11.0298,3.8054,.4757,1.3787,11.0298-3.8054,5.4702,15.8554-18.9575,6.5405-2.4973-7.2383,11.0298-3.8054-.4757-1.3787-11.0298,3.8054-5.3513-15.5107Z" style="fill: #2dd5c4;"/>
        <path id="uuid-162063e7-f518-421a-a4de-f105c76e846a" data-name="path3003" d="M272.6844,28.6921l18.9575-6.5405,2.3783,6.8937-11.0298,3.8054,.4757,1.3787,11.0298-3.8054,5.4702,15.8554-18.9575,6.5405-2.4973-7.2383,11.0298-3.8054-.4757-1.3787-11.0298,3.8054-5.3513-15.5107Z" style="fill: #2dd5c4;"/>
        <g>
          <path d="M334.7599,46.09l-125.03,43.13,55.41,123.7,55.95-3.44,46.3-31.86-32.63-131.53Zm-22.95,136.27l-.06,.04-35.13,2.16-10.68-23.82,7.25-2.49,8.47-2.93,5.42,12.1,19.05-1.3,.02-.01,.05-.04,15.78-10.7-5.19-20.93-19.22,6.63-35.03,12.09-6.8-15.17,36.38-12.55,.05-.02,20.58-7.1-4.11-16.52-22,7.59-37.82,13.05-6.83-15.16,39.2-13.52,.05-.02,39.16-13.51,8.1,32.66,1.07,4.33,10.54,42.48,.67,2.73-28.97,19.93Z" style="fill: #2dd5c4;"/>
          <polygon points="340.78 162.43 311.8099 182.36 306.1999 166.07 321.98 155.37 316.79 134.44 297.5699 141.07 292.17 125.42 312.7499 118.32 308.6399 101.8 286.6399 109.39 282.53 97.48 281.2399 93.74 320.4 80.23 328.4999 112.89 329.5699 117.22 340.1099 159.7 340.78 162.43" style="fill: none;"/>
        </g>
      </g>
    </g>
  </g>
</svg>