<svg id="visual"  height="100%" width="100%" viewBox="0 0 900 600" preserveAspectRatio="none" xmlns="http://www.w3.org/2000/svg" xmlns:xlink="http://www.w3.org/1999/xlink" version="1.1"><path d="M0 70L21.5 85.3C43 100.7 86 131.3 128.8 135.8C171.7 140.3 214.3 118.7 257.2 117.7C300 116.7 343 136.3 385.8 137.7C428.7 139 471.3 122 514.2 107.8C557 93.7 600 82.3 642.8 75.8C685.7 69.3 728.3 67.7 771.2 71.7C814 75.7 857 85.3 878.5 90.2L900 95L900 0L878.5 0C857 0 814 0 771.2 0C728.3 0 685.7 0 642.8 0C600 0 557 0 514.2 0C471.3 0 428.7 0 385.8 0C343 0 300 0 257.2 0C214.3 0 171.7 0 128.8 0C86 0 43 0 21.5 0L0 0Z" fill="#00AFC1" stroke-linecap="round" stroke-linejoin="miter"></path></svg>